<?xml version="1.0" standalone="no"?>
<!DOCTYPE svg PUBLIC "-//W3C//DTD SVG 20010904//EN"
 "http://www.w3.org/TR/2001/REC-SVG-20010904/DTD/svg10.dtd">
<svg version="1.0" xmlns="http://www.w3.org/2000/svg"
 width="282.000000pt" height="107.000000pt" viewBox="0 0 282.000000 107.000000"
 preserveAspectRatio="xMidYMid meet">
<metadata>
Created by potrace 1.16, written by Peter Selinger 2001-2019
</metadata>
<g transform="translate(0.000000,107.000000) scale(0.100000,-0.100000)"
fill="#000000" stroke="none">
<path d="M1320 1015 c0 -18 5 -25 19 -25 28 0 31 -34 31 -304 0 -277 -4 -316
-31 -316 -14 0 -19 -7 -19 -25 0 -25 0 -25 95 -25 93 0 95 0 95 24 0 15 -7 26
-20 29 -19 5 -20 14 -20 160 0 136 2 156 18 170 26 24 68 21 86 -5 13 -18 16
-53 16 -171 0 -140 -1 -149 -20 -154 -13 -3 -20 -14 -20 -29 0 -24 2 -24 90
-24 89 0 90 0 90 25 0 15 -6 25 -14 25 -21 0 -26 33 -26 173 0 146 -11 185
-62 217 -26 17 -45 20 -95 18 l-63 -4 0 133 0 133 -75 0 c-73 0 -75 -1 -75
-25z"/>
<path d="M336 983 c-3 -16 -24 -138 -46 -273 -46 -275 -86 -485 -95 -500 -3
-6 -13 -10 -21 -10 -8 0 -14 -10 -14 -25 0 -24 2 -25 70 -25 68 0 70 1 70 25
0 18 -5 25 -20 25 -22 0 -26 28 -14 89 l7 31 82 0 c93 0 95 -1 95 -76 0 -37
-3 -44 -20 -44 -15 0 -20 -7 -20 -25 l0 -25 105 0 105 0 0 25 c0 18 -5 25 -19
25 -22 0 -31 34 -81 304 -26 142 -79 474 -80 499 0 4 -22 7 -49 7 -46 0 -50
-2 -55 -27z m64 -380 c16 -112 30 -210 30 -218 0 -12 -15 -15 -76 -15 -74 0
-76 1 -71 23 3 12 22 116 44 231 21 115 39 203 40 195 2 -8 16 -105 33 -216z"/>
<path d="M1797 992 c-23 -25 -22 -85 1 -105 44 -40 112 -8 112 53 0 62 -74 96
-113 52z"/>
<path d="M768 759 c-25 -19 -29 -19 -44 -5 -9 9 -32 16 -55 16 -34 0 -39 -3
-39 -24 0 -15 7 -26 20 -29 19 -5 20 -14 20 -172 0 -158 -1 -167 -20 -172 -13
-3 -20 -14 -20 -29 0 -24 1 -24 100 -24 l100 0 0 25 c0 20 -5 25 -24 25 -32 0
-36 14 -36 143 0 118 11 176 36 202 17 17 74 21 74 5 0 -5 -6 -10 -14 -10 -8
0 -20 -16 -26 -35 -17 -50 4 -89 49 -93 50 -5 71 19 71 85 0 47 -4 59 -29 84
-25 25 -37 29 -83 29 -37 -1 -61 -7 -80 -21z"/>
<path d="M1056 750 c-50 -44 -68 -98 -68 -206 0 -155 46 -224 152 -232 69 -5
99 9 130 61 39 64 18 77 -34 22 -26 -27 -41 -35 -68 -35 -66 0 -73 13 -76 150
-5 180 7 220 67 220 39 0 43 -9 21 -38 -26 -32 -25 -77 0 -102 65 -65 141 40
95 130 -21 40 -63 60 -129 60 -47 0 -60 -4 -90 -30z"/>
<path d="M2409 757 c-19 -12 -45 -43 -57 -69 -20 -40 -24 -63 -24 -144 0 -81
4 -103 24 -142 33 -64 77 -92 144 -92 41 0 59 5 82 25 39 32 61 83 41 95 -9 6
-18 1 -29 -16 -26 -38 -52 -53 -93 -54 -34 0 -40 4 -53 35 -7 19 -14 52 -14
73 0 38 0 39 75 71 107 47 125 64 125 112 0 83 -49 129 -138 129 -34 0 -59 -7
-83 -23z m131 -46 c5 -11 10 -36 10 -55 0 -34 -3 -38 -56 -61 -31 -14 -59 -25
-61 -25 -11 0 4 129 16 144 19 23 78 21 91 -3z"/>
<path d="M1750 747 c0 -14 9 -26 23 -32 21 -10 22 -16 25 -145 4 -164 -2 -200
-28 -200 -15 0 -20 -7 -20 -25 0 -25 0 -25 95 -25 95 0 95 0 95 25 0 15 -6 25
-14 25 -23 0 -26 24 -26 216 l0 184 -75 0 c-71 0 -75 -1 -75 -23z"/>
<path d="M1960 745 c0 -15 6 -25 15 -25 15 0 35 -60 90 -270 l32 -125 38 0 39
0 18 85 c36 165 80 310 94 310 8 0 14 10 14 25 0 24 -2 25 -65 25 -63 0 -65
-1 -65 -25 0 -18 5 -25 20 -25 11 0 20 -7 20 -15 0 -26 -43 -220 -50 -228 -7
-8 -60 194 -60 228 0 8 9 15 20 15 15 0 20 7 20 25 0 25 -1 25 -90 25 -89 0
-90 0 -90 -25z"/>
</g>
</svg>
